<svg id="visual" viewBox="0 0 900 600" width="900" height="600" xmlns="http://www.w3.org/2000/svg" xmlns:xlink="http://www.w3.org/1999/xlink" version="1.1"><rect x="0" y="0" width="900" height="600" fill="#E3DCC7"></rect><defs><linearGradient id="grad1_0" x1="33.3%" y1="100%" x2="100%" y2="0%"><stop offset="20%" stop-color="#968e75" stop-opacity="1"></stop><stop offset="80%" stop-color="#968e75" stop-opacity="1"></stop></linearGradient></defs><defs><linearGradient id="grad1_1" x1="33.3%" y1="100%" x2="100%" y2="0%"><stop offset="20%" stop-color="#968e75" stop-opacity="1"></stop><stop offset="80%" stop-color="#e3dcc7" stop-opacity="1"></stop></linearGradient></defs><defs><linearGradient id="grad2_0" x1="0%" y1="100%" x2="66.7%" y2="0%"><stop offset="20%" stop-color="#968e75" stop-opacity="1"></stop><stop offset="80%" stop-color="#968e75" stop-opacity="1"></stop></linearGradient></defs><defs><linearGradient id="grad2_1" x1="0%" y1="100%" x2="66.7%" y2="0%"><stop offset="20%" stop-color="#e3dcc7" stop-opacity="1"></stop><stop offset="80%" stop-color="#968e75" stop-opacity="1"></stop></linearGradient></defs><g transform="translate(900, 600)"><path d="M-243.4 0C-237 -8.8 -230.6 -17.5 -232.3 -28.2C-234 -38.9 -243.7 -51.4 -233 -57.4C-222.3 -63.4 -191.2 -62.9 -183.3 -69.5C-175.3 -76.1 -190.5 -89.8 -200.1 -105C-209.7 -120.2 -213.7 -136.9 -200.3 -138.3C-186.9 -139.6 -156.2 -125.8 -144.5 -128C-132.7 -130.2 -140 -148.4 -134 -151.2C-127.9 -154 -108.6 -141.4 -102.3 -148.1C-95.9 -154.9 -102.5 -181 -97.6 -185.9C-92.7 -190.9 -76.2 -174.8 -66.7 -175.8C-57.1 -176.7 -54.4 -194.7 -47.6 -193.2C-40.8 -191.7 -30 -170.6 -21.3 -175.7C-12.7 -180.8 -6.4 -212.1 0 -243.4L0 0Z" fill="#bcb49d"></path><path d="M-121.7 0C-118.5 -4.4 -115.3 -8.8 -116.1 -14.1C-117 -19.4 -121.9 -25.7 -116.5 -28.7C-111.2 -31.7 -95.6 -31.5 -91.6 -34.8C-87.7 -38.1 -95.3 -44.9 -100.1 -52.5C-104.9 -60.1 -106.8 -68.4 -100.1 -69.1C-93.5 -69.8 -78.1 -62.9 -72.2 -64C-66.4 -65.1 -70 -74.2 -67 -75.6C-64 -77 -54.3 -70.7 -51.1 -74.1C-47.9 -77.4 -51.3 -90.5 -48.8 -93C-46.3 -95.5 -38.1 -87.4 -33.3 -87.9C-28.5 -88.4 -27.2 -97.4 -23.8 -96.6C-20.4 -95.8 -15 -85.3 -10.7 -87.9C-6.4 -90.4 -3.2 -106 0 -121.7L0 0Z" fill="#968e75"></path></g><g transform="translate(0, 0)"><path d="M243.4 0C216.5 6 189.6 12 194.6 23.6C199.6 35.2 236.5 52.4 227.2 56C217.9 59.6 162.2 49.7 160.8 61C159.4 72.3 212.2 104.7 215.5 113.1C218.8 121.5 172.6 105.8 158.8 109.6C145 113.5 163.6 136.8 160.2 141.9C156.8 147 131.4 134 122 137.7C112.6 141.5 119.1 162 113 163.8C107 165.6 88.5 148.7 83.7 159.4C78.8 170.1 87.5 208.4 84 221.6C80.6 234.8 65.1 222.9 53.6 217.5C42.1 212 34.8 213 26.5 218.4C18.3 223.8 9.1 233.6 0 243.4L0 0Z" fill="#bcb49d"></path><path d="M121.7 0C108.2 3 94.8 6 97.3 11.8C99.8 17.6 118.3 26.2 113.6 28C108.9 29.8 81.1 24.9 80.4 30.5C79.7 36.1 106.1 52.4 107.7 56.6C109.4 60.7 86.3 52.9 79.4 54.8C72.5 56.7 81.8 68.4 80.1 71C78.4 73.5 65.7 67 61 68.9C56.3 70.7 59.5 81 56.5 81.9C53.5 82.8 44.3 74.3 41.8 79.7C39.4 85 43.7 104.2 42 110.8C40.3 117.4 32.5 111.5 26.8 108.7C21.1 106 17.4 106.5 13.3 109.2C9.1 111.9 4.6 116.8 0 121.7L0 0Z" fill="#968e75"></path></g></svg>