<svg id="visual" viewBox="0 0 900 600" width="900" height="600" xmlns="http://www.w3.org/2000/svg" xmlns:xlink="http://www.w3.org/1999/xlink" version="1.1"><rect x="0" y="0" width="900" height="600" fill="#E3DCC7"></rect><defs><linearGradient id="grad1_0" x1="33.3%" y1="0%" x2="100%" y2="100%"><stop offset="20%" stop-color="#968e75" stop-opacity="1"></stop><stop offset="80%" stop-color="#968e75" stop-opacity="1"></stop></linearGradient></defs><defs><linearGradient id="grad1_1" x1="33.3%" y1="0%" x2="100%" y2="100%"><stop offset="20%" stop-color="#968e75" stop-opacity="1"></stop><stop offset="80%" stop-color="#e3dcc7" stop-opacity="1"></stop></linearGradient></defs><defs><linearGradient id="grad2_0" x1="0%" y1="0%" x2="66.7%" y2="100%"><stop offset="20%" stop-color="#968e75" stop-opacity="1"></stop><stop offset="80%" stop-color="#968e75" stop-opacity="1"></stop></linearGradient></defs><defs><linearGradient id="grad2_1" x1="0%" y1="0%" x2="66.7%" y2="100%"><stop offset="20%" stop-color="#e3dcc7" stop-opacity="1"></stop><stop offset="80%" stop-color="#968e75" stop-opacity="1"></stop></linearGradient></defs><g transform="translate(900, 0)"><path d="M0 243.4C-8.8 237 -17.5 230.6 -28.2 232.3C-38.9 234 -51.4 243.7 -57.4 233C-63.4 222.3 -62.9 191.2 -69.5 183.3C-76.1 175.3 -89.8 190.5 -105 200.1C-120.2 209.7 -136.9 213.7 -138.3 200.3C-139.6 186.9 -125.8 156.2 -128 144.5C-130.2 132.7 -148.4 140 -151.2 134C-154 127.9 -141.4 108.6 -148.1 102.3C-154.9 95.9 -181 102.5 -185.9 97.6C-190.9 92.7 -174.8 76.2 -175.8 66.7C-176.7 57.1 -194.7 54.4 -193.2 47.6C-191.7 40.8 -170.6 30 -175.7 21.3C-180.8 12.7 -212.1 6.4 -243.4 0L0 0Z" fill="#bcb49d"></path><path d="M0 121.7C-4.4 118.5 -8.8 115.3 -14.1 116.1C-19.4 117 -25.7 121.9 -28.7 116.5C-31.7 111.2 -31.5 95.6 -34.8 91.6C-38.1 87.7 -44.9 95.3 -52.5 100.1C-60.1 104.9 -68.4 106.8 -69.1 100.1C-69.8 93.5 -62.9 78.1 -64 72.2C-65.1 66.4 -74.2 70 -75.6 67C-77 64 -70.7 54.3 -74.1 51.1C-77.4 47.9 -90.5 51.3 -93 48.8C-95.5 46.3 -87.4 38.1 -87.9 33.3C-88.4 28.5 -97.4 27.2 -96.6 23.8C-95.8 20.4 -85.3 15 -87.9 10.7C-90.4 6.4 -106 3.2 -121.7 0L0 0Z" fill="#968e75"></path></g><g transform="translate(0, 600)"><path d="M0 -243.4C6 -216.5 12 -189.6 23.6 -194.6C35.2 -199.6 52.4 -236.5 56 -227.2C59.6 -217.9 49.7 -162.2 61 -160.8C72.3 -159.4 104.7 -212.2 113.1 -215.5C121.5 -218.8 105.8 -172.6 109.6 -158.8C113.5 -145 136.8 -163.6 141.9 -160.2C147 -156.8 134 -131.4 137.7 -122C141.5 -112.6 162 -119.1 163.8 -113C165.6 -107 148.7 -88.5 159.4 -83.7C170.1 -78.8 208.4 -87.5 221.6 -84C234.8 -80.6 222.9 -65.1 217.5 -53.6C212 -42.1 213 -34.8 218.4 -26.5C223.8 -18.3 233.6 -9.1 243.4 0L0 0Z" fill="#bcb49d"></path><path d="M0 -121.7C3 -108.2 6 -94.8 11.8 -97.3C17.6 -99.8 26.2 -118.3 28 -113.6C29.8 -108.9 24.9 -81.1 30.5 -80.4C36.1 -79.7 52.4 -106.1 56.6 -107.7C60.7 -109.4 52.9 -86.3 54.8 -79.4C56.7 -72.5 68.4 -81.8 71 -80.1C73.5 -78.4 67 -65.7 68.9 -61C70.7 -56.3 81 -59.5 81.9 -56.5C82.8 -53.5 74.3 -44.3 79.7 -41.8C85 -39.4 104.2 -43.7 110.8 -42C117.4 -40.3 111.5 -32.5 108.7 -26.8C106 -21.1 106.5 -17.4 109.2 -13.3C111.9 -9.1 116.8 -4.6 121.7 0L0 0Z" fill="#968e75"></path></g></svg>